<svg version="1" xmlns="http://www.w3.org/2000/svg" width="630.667" height="630.667" viewBox="0 0 473.000000 473.000000"><path d="M208.3 1.5C109.8 14 30.5 84.5 7 180.4c-16.8 68.3-2.1 140.1 40.3 197.2 9.2 12.4 28.4 32.6 40.2 42.1 28.1 22.7 65 40.3 100 47.6 17.7 3.7 30 5 49 5 26.8 0 49.1-3.6 74-11.8C424.2 423 492.1 306.1 468 189c-9.6-46.6-33.7-90.5-67.7-123.1-35-33.5-76.6-54.3-125.8-63-15.8-2.8-49.8-3.5-66.2-1.4zm182.5 81.7c1.7 1.7 1.7 303.9 0 305.6-1.7 1.7-303.9 1.7-305.6 0-1.7-1.7-1.7-303.9 0-305.6 1.7-1.7 303.9-1.7 305.6 0z"/><path d="M322 126.5V153h52v-53h-52v26.5zM236.7 198c-7.1 1.8-14.9 6.2-20 11.4-19.6 19.7-15.1 52.5 8.8 63.7 15.7 7.4 35.3 5.4 46.4-4.6 3.3-3 4.1-4.4 4.1-7.2v-3.5l-5.9 5.5c-9.7 8.9-20.4 11.1-30.8 6.2-9.9-4.5-15.1-17.8-14-35.9.8-15 5.6-24 15.7-29.2 5-2.6 14.3-2.4 19.6.3 5.3 2.8 10.7 8.9 12.9 14.6 1 2.6 2.2 4.7 2.6 4.7.5 0 .9-6.1.9-13.5 0-12.5-.9-16.6-2.5-11.5-1.2 3.7-3.5 3.9-11.5 1.3-8.3-2.7-20.3-3.8-26.3-2.3zM310.6 229.7c-17.2 38.4-18.4 40.5-23.1 42.7-1.9.9-3.5 2.1-3.5 2.6 0 .6 5.4 1 13 1 10.9 0 13-.2 13-1.5 0-1-1-1.5-2.8-1.5-3.8 0-7.2-2.6-7.2-5.5 0-1.4 1.1-4.9 2.4-8l2.5-5.5h26.8l3.2 7.5c1.7 4.1 3.1 7.9 3.1 8.4 0 1.6-2.8 3.2-5.9 3.3-1.9.1-3.1.6-3.1 1.5 0 1 3.7 1.3 18.5 1.3 15.8 0 18.5-.2 18.5-1.5 0-.8-.8-1.5-1.8-1.5s-2.9-1.1-4.1-2.4c-2-2.1-14-28.3-29.2-63.4-2.4-5.6-4.7-10.2-5-10.2-.4 0-7.3 14.7-15.3 32.7zm13.3 6.7c2.8 6.5 5.1 12.2 5.1 12.7 0 1.1-20.7 1.2-21.3.1-.5-.7 10.3-25.5 10.9-25 .1.2 2.6 5.7 5.3 12.2zM112 200c0 .5 1.3 1 2.9 1 1.6 0 3.9.9 5.2 1.9l2.4 1.9.3 30.9c.2 19.3-.1 32-.7 33.6-.8 2-2.2 3-5.6 3.9-2.5.7-4.5 1.6-4.5 2 0 .4 9 .8 20 .8s20-.4 20-.8-1.9-1.3-4.3-1.9c-6-1.7-6.7-3.6-6.7-20.3v-14h27v15.3c0 18-.5 19.1-9.7 19.6-.7.1-1.3.5-1.3 1.1 0 .6 7.5 1 20.5 1 19.4 0 25.7-.9 16.5-2.5-7-1.2-7-1-7-36.6v-31.8l2.6-2c1.5-1.2 4-2.1 5.5-2.1 1.6 0 2.9-.5 2.9-1 0-.6-7.5-1-20.5-1-11.3 0-20.5.4-20.5.9 0 .4 1.9 1.1 4.2 1.4 6.4.9 6.8 2 6.8 18.4v14.4l-13.2-.3-13.3-.3v-14.3c0-13.9.1-14.4 2.4-16.3 1.3-1 3.6-1.9 5.2-1.9s2.9-.5 2.9-1c0-.6-7.3-1-20-1s-20 .4-20 1z"/></svg>